<?xml version="1.0" encoding="UTF-8" standalone="no"?>
<!-- Created with Inkscape (http://www.inkscape.org/) -->

<svg
   version="1.1"
   id="svg1766"
   width="274.98608"
   height="818.7951"
   viewBox="0 0 274.98608 818.7951"
   xmlns="http://www.w3.org/2000/svg"
   xmlns:svg="http://www.w3.org/2000/svg">
  <defs
     id="defs1770" />
  <g
     id="g1772"
     transform="translate(-11.022706,-0.15619713)">
    <path
       style="fill:#000000"
       d="m 188.03149,816.63139 c 20.09866,-6.06026 30.45587,-14.26751 42.17659,-33.42152 2.25825,-3.69043 6.66326,-9.85987 9.78891,-13.70987 18.25142,-22.48107 26.27171,-41.20953 32.11805,-75 2.98536,-17.25466 2.71326,-66.36272 -0.58617,-105.79028 -4.26694,-50.98928 -4.68338,-63.98004 -4.55873,-142.20972 0.0928,-58.24705 0.45554,-78.57396 1.62391,-91 1.72933,-18.39209 7.34611,-60.05767 11.05411,-82 3.96356,-23.45461 6.34612,-48.3643 6.36058,-66.5 0.0124,-15.59414 -2.64907,-48.83087 -4.99417,-62.36673 C 275.48499,112.71654 269.38141,91.498091 258.82685,67.5 247.21189,41.090855 244.51505,36.445198 235.55456,27.410484 228.4894,20.286811 225.97936,18.537707 214.53149,12.760696 195.76834,3.2921266 188.07821,1.2109951 169.03149,0.44731226 154.50872,-0.13498155 152.9062,-0.01200291 143.61368,2.3978864 c -5.4548,1.4146277 -16.0298,5.3879991 -23.5,8.8297146 C 108.3425,16.650888 105.54576,18.419604 99.138723,24.492632 68.605563,53.43402 40.707673,106.71483 23.568573,168.82036 9.0278329,221.51044 7.4423929,260.24574 17.176163,325 c 1.69484,11.275 3.68761,21.625 4.42839,23 0.90666,1.6829 1.35995,1.96952 1.3869,0.87695 0.0652,-2.64516 12.48331,-27.06595 19.12474,-37.60985 7.21894,-11.46076 21.02608,-30.17438 22.30338,-30.22907 1.10156,-0.0472 -0.1115,33.80194 -1.55509,43.39306 -0.93689,6.22463 -1.83611,8.11026 -8.82226,18.5 -9.94733,14.79358 -17.00827,28.05259 -21.39461,40.17474 -5.54855,15.33404 -5.99858,19.52469 -3.70969,34.54433 1.07703,7.06741 2.26611,15.88734 2.6424,19.59984 0.37629,3.7125 0.96924,6.74885 1.31767,6.74744 0.34842,-10e-4 2.8577,-5.73892 5.57617,-12.75 4.77527,-12.31569 16.788,-35.91234 20.62164,-40.50716 1.83874,-2.20384 1.86969,-1.93076 1.90242,16.78595 0.044,25.16233 -1.07619,33.75533 -5.56144,42.66183 -5.52035,10.96196 -11.90024,27.29496 -15.55108,39.81194 -3.17155,10.87375 -3.34668,12.28962 -3.21592,26 0.0761,7.975 1.76515,35.875 3.75354,62 8.64511,113.58593 14.5627,140.05628 40.9106,183 3.88068,6.325 8.55877,14.36169 10.39577,17.85931 5.56996,10.6051 10.173597,16.84559 17.149897,23.24761 7.87778,7.22929 15.55375,11.34256 27.14487,14.54593 7.50778,2.07488 10.58181,2.34093 26.5,2.29357 15.72577,-0.0468 18.95718,-0.34008 25.50703,-2.31503 z m -44.03544,-46.99335 c -5.65678,-2.60972 -9.07188,-5.10199 -14.10139,-10.29088 C 118.80918,747.91037 114.2017,740.15832 106.03697,719.20684 93.958123,688.21131 86.750663,654.74004 83.960313,616.68343 82.778813,600.56918 82.760083,600.48504 79.581023,597 c -4.4478,-4.87588 -6.12278,-7.82388 -7.95957,-14.00902 -3.68498,-12.40867 -1.14533,-24.54097 10.35991,-49.49098 7.29999,-15.8306 12.5248,-29.35866 11.66931,-30.21415 -0.20181,-0.20182 -4.57539,0.98643 -9.71905,2.64054 -8.52471,2.7414 -9.55331,2.87565 -11.62612,1.51749 -1.61714,-1.05959 -2.27401,-2.45876 -2.27401,-4.84379 0,-3.05372 0.425,-3.53271 4.75,-5.35333 2.6125,-1.09975 7.9,-3.00728 11.75,-4.23897 10.97916,-3.51245 10.11486,-1.21187 13.06831,-34.78533 l 0.640197,-7.27754 -8.295657,3.02754 c -10.21618,3.72844 -12.36763,3.78928 -14.58031,0.41231 -3.03016,-4.62461 -0.56435,-7.03565 12.05389,-11.78621 7.69496,-2.89703 11.096447,-4.68488 11.602857,-6.09856 0.78826,-2.20051 2.25916,-35.5 1.5681,-35.5 -0.2365,0 -3.935897,1.35 -8.220887,3 -9.5221,3.66663 -11.80065,3.74744 -13.93232,0.4941 -1.34508,-2.05285 -1.43219,-3.01227 -0.48179,-5.30673 0.97919,-2.36398 2.79669,-3.4003 11.65261,-6.64417 5.77085,-2.11383 10.809787,-4.3383 11.197637,-4.94327 0.70461,-1.09903 3.24845,-36.78889 2.66922,-37.44877 -0.16842,-0.19186 -3.92221,1.04564 -8.341777,2.75 -11.51774,4.44171 -15.10008,3.96045 -15.10008,-2.02858 0,-3.79476 3.21661,-6.01021 14.46922,-9.96572 8.889027,-3.12467 9.553917,-3.5491 9.990217,-6.37716 0.75454,-4.89079 2.51463,-33.88896 2.08314,-34.32045 -0.217,-0.217 -4.17297,0.99715 -8.791047,2.6981 -12.05485,4.44011 -14.75153,3.96768 -14.75153,-2.5843 0,-4.11851 1.54103,-5.1236 14.23986,-9.28753 5.356917,-1.75653 10.022077,-3.65034 10.367017,-4.20846 0.60042,-0.9715 5.35458,-27.98878 5.38057,-30.57706 0.009,-0.92094 -2.7344,-1.25 -10.42235,-1.25 -13.166187,0 -15.565097,-0.81303 -15.565097,-5.27525 0,-5.35964 1.01677,-5.72465 15.949997,-5.72577 l 13.55,-10e-4 2.68223,-4.7758 c 3.9551,-7.0422 8.97677,-11.71108 16.56503,-15.40127 5.80651,-2.82372 8.02787,-3.33431 15.85267,-3.6438 8.34397,-0.33003 9.71799,-0.10263 16.53997,2.73737 8.38315,3.48991 16.65899,10.91246 19.32843,17.33553 l 1.55851,3.75 h 12.15784 c 13.4161,-1e-5 15.81532,0.90338 15.81532,5.95498 0,4.46043 -1.53315,5.04501 -13.23138,5.04501 -9.01133,0 -10.93468,0.26916 -11.44605,1.60179 -0.33807,0.88099 -0.0762,6.84349 0.58198,13.25 2.00005,19.46842 0.91391,17.45667 11.43723,21.18397 13.73664,4.86543 14.65822,5.4495 14.65822,9.28992 0,6.54392 -2.85672,7.04672 -14.9536,2.63191 l -8.33642,-3.04242 0.67856,11.29242 c 0.37321,6.21082 0.94986,14.74029 1.28144,18.95437 l 0.60289,7.66196 8.61357,3.08826 c 11.91632,4.27242 15.11356,6.36105 15.11356,9.87312 0,5.84337 -4.02504,6.62386 -14,2.7147 -3.50857,-1.375 -6.9689,-2.5 -7.68961,-2.5 -1.00959,0 -1.30876,2.81197 -1.30328,12.25 0.004,6.7375 0.28682,15.21079 0.62869,18.82953 l 0.62157,6.57953 9.78205,3.20633 c 5.38012,1.76348 10.94721,4.12285 12.37131,5.24305 3.07,2.41486 3.34447,5.89814 0.65643,8.33078 -2.24682,2.03335 -5.00795,1.65283 -14.93622,-2.05842 -3.50298,-1.30944 -6.77801,-2.3808 -7.27785,-2.3808 -0.50318,0 -0.67836,2.78944 -0.39249,6.25 0.28397,3.4375 0.78747,11.91217 1.11889,18.83261 l 0.60259,12.58261 10.58828,3.41739 c 11.55394,3.72906 15.22964,5.94014 15.22964,9.16123 0,2.58637 -2.73543,5.75616 -4.9674,5.75616 -0.91158,0 -5.56684,-1.32147 -10.34501,-2.93659 l -8.68759,-2.93659 0.0195,5.18659 c 0.0235,6.24599 2.57354,29.49901 3.49642,31.88267 0.41892,1.08201 4.69848,3.03551 11.82037,5.39566 10.01006,3.31727 16.75526,6.38233 14.13621,6.42357 -0.53488,0.008 -0.38391,0.38861 0.33549,0.84486 1.73787,1.10218 0.63028,5.38503 -1.78227,6.89169 -1.49993,0.93672 -3.63119,0.56789 -11.00094,-1.90379 -5.02732,-1.68608 -9.42764,-2.77855 -9.77847,-2.42772 -0.84455,0.84455 8.0061,19.05921 14.01305,28.83891 6.22245,10.13054 12.26392,23.29064 13.64196,29.71622 2.3767,11.08218 0.69518,21.73332 -4.87309,30.86718 L 233.22048,597.5 232.57512,621 c -2.41704,88.01391 -21.72172,139.53473 -56.54363,150.90513 -9.87834,3.22557 -21.98709,2.36866 -32.03544,-2.26709 z M 115.60172,586.43238 c 19.27371,-10.07719 26.47826,-12.012 41.42977,-11.12613 10.07364,0.59686 24.07242,4.64529 34.68668,10.03136 8.49777,4.31207 18.29444,7.66239 22.40563,7.66239 2.1198,0 5.8641,-0.97649 8.32066,-2.16998 3.77716,-1.83509 4.88202,-3.09595 7.15912,-8.16999 2.41037,-5.37103 2.62778,-6.76733 2.07392,-13.31947 -0.52553,-6.21703 -1.46571,-9.01547 -6.24225,-18.58001 -3.09294,-6.1933 -7.86891,-14.99726 -10.61326,-19.56435 -5.98331,-9.95729 -11.33701,-22.12928 -12.27004,-27.89672 l -0.67954,-4.20053 -24.77658,-8.23666 -24.77658,-8.23666 -23.38095,8.02259 -23.38094,8.0226 -0.87334,3.41459 c -3.6516,14.27707 -12.196527,35.31445 -13.913057,34.25357 -0.60082,-0.37133 -0.7525,-0.16908 -0.35525,0.47368 0.38128,0.61693 -1.28889,5.74895 -3.71148,11.40451 -5.87742,13.72087 -7.04888,18.50817 -6.42645,26.26232 0.87272,10.8722 8.63705,20.64601 16.23584,20.43783 1.7151,-0.047 9.955137,-3.70981 19.088097,-8.48494 z M 198.38244,485.1717 c 0.35358,-0.6381 -1.32347,-17.39631 -1.79345,-17.92135 -0.27882,-0.31149 -22.34899,7.53358 -24.36005,8.65903 -1.00309,0.56135 2.86896,2.27489 12.15464,5.3789 7.49466,2.50531 13.79415,4.25285 13.99886,3.88342 z m -77.00033,-3.88301 c 9.88219,-3.53478 12.46381,-4.81304 11.17606,-5.5337 C 130.75278,474.74464 111.08882,468 109.94855,468 c -0.37948,0 -0.9492,1.9125 -1.26603,4.25 -0.31683,2.3375 -0.86902,6.3875 -1.22708,9 -0.35807,2.6125 -0.26244,4.72418 0.21251,4.69262 0.47495,-0.0315 6.64632,-2.12582 13.71416,-4.65393 z m 35.64938,-11.88305 c 1.925,-0.8368 10.25,-3.92558 18.5,-6.86397 21.58608,-7.68827 20.78125,-7.22572 19.9856,-11.48626 -0.36518,-1.95548 -0.76585,-3.65992 -0.89037,-3.78766 -0.12452,-0.12774 -9.70173,-3.58398 -21.28268,-7.68053 l -21.05629,-7.44828 -20.87813,7.75871 -20.87813,7.75871 -0.30005,4.01944 -0.30005,4.01943 20.30005,7.08372 c 11.16503,3.89605 20.97505,7.32322 21.80005,7.61593 0.825,0.29271 3.075,-0.15245 5,-0.98924 z m 37.70317,-42.82119 c -0.66195,-9.37991 -1.22917,-11.19954 -3.0422,-9.75933 -0.63853,0.50723 -5.77347,2.60406 -11.41097,4.65963 -5.6375,2.05557 -10.25,4.02538 -10.25,4.37737 0,0.54004 19.58616,7.90705 23.90434,8.99121 1.16265,0.29191 1.30153,-1.1456 0.79883,-8.26888 z m -71.76452,4.32182 c 5.74126,-2.13596 10.81699,-4.26191 11.2794,-4.72432 0.96521,-0.96521 -21.00727,-9.43026 -22.33995,-8.60661 -1.06546,0.65849 -1.18979,17.46833 -0.1281,17.31958 0.4125,-0.0578 5.44739,-1.85268 11.18865,-3.98865 z m 50.06135,-18.68203 c 10.725,-4.18023 19.59875,-7.65203 19.71945,-7.71511 0.12069,-0.0631 0.34569,-1.64376 0.5,-3.51262 l 0.28055,-3.39792 -14.5,-5.76568 c -7.975,-3.17112 -17.425,-6.72106 -21,-7.88875 l -6.5,-2.12307 -17,6.62079 c -9.35,3.64143 -17.98822,7.03598 -19.19605,7.54344 -1.44036,0.60515 -2.42799,2.15893 -2.87004,4.51529 -0.37069,1.97596 -0.50747,3.7331 -0.30395,3.90477 0.75623,0.63787 39.95307,15.59128 40.6478,15.50695 0.39723,-0.0482 9.49724,-3.50786 20.22224,-7.68809 z m 20,-32.08467 c 0,-6.62088 -1.21935,-13.13957 -2.45781,-13.13957 -2.3363,0 -19.91242,7.61068 -20.30652,8.79298 -0.22128,0.66386 0.27156,1.20702 1.09522,1.20702 0.82365,0 5.62475,1.575 10.66911,3.5 5.04436,1.925 9.58296,3.5 10.08578,3.5 0.50282,0 0.91422,-1.73719 0.91422,-3.86043 z m -68.5,0.0261 c 5.5,-2.04271 9.93245,-4.15229 9.84988,-4.68796 -0.18142,-1.17695 -19.1956,-8.9653 -19.97783,-8.18306 -0.97201,0.972 -1.69516,16.7079 -0.76494,16.64521 0.49109,-0.0331 5.39289,-1.73151 10.89289,-3.77422 z m 47.89131,-18.51258 c 14.61429,-5.84289 18.05251,-7.59172 18.77139,-9.54799 1.71875,-4.6772 0.47544,-5.52802 -18.92928,-12.95358 -10.30338,-3.94277 -19.28229,-7.16481 -19.95313,-7.16008 -0.67083,0.005 -9.33333,3.23952 -19.25,7.18844 l -18.03029,7.17982 0.003,4.07015 0.003,4.07015 18.38219,7.25 c 10.1102,3.9875 18.99635,7.20638 19.747,7.15306 0.75066,-0.0533 9.41592,-3.31582 19.25614,-7.25 z m 18.60869,-30.01499 c 0,-6.39098 -1.38956,-14.6381 -2.46638,-14.6381 -1.40626,0 -17.66966,6.89133 -18.86268,7.99273 -0.45598,0.42096 1.11902,1.45065 3.5,2.2882 2.38098,0.83754 7.36656,2.6881 11.07906,4.11235 l 6.75,2.58953 z m -64.75,-1.93549 c 5.3625,-2.25997 9.75,-4.38828 9.75,-4.72958 0,-1.15392 -18.41171,-7.96132 -19.25416,-7.11887 -0.45955,0.45955 -0.70287,4.23799 -0.5407,8.39652 l 0.29486,7.56096 z m 45,-17.97389 17.75,-7.18722 v -4.16234 c 0,-3.7071 -0.30077,-4.23768 -2.75,-4.85111 -1.5125,-0.37883 -9.725,-3.37553 -18.25,-6.65933 l -15.5,-5.97056 -16,6.19482 c -8.8,3.40715 -16.5625,6.63517 -17.25,7.17337 -0.6875,0.5382 -1.25,2.65121 -1.25,4.69558 0,3.08025 0.47112,3.93473 2.75,4.9877 5.06859,2.34198 31.53058,13.05088 32.14397,13.00834 0.33332,-0.0231 8.59353,-3.27628 18.35603,-7.22925 z m 15.75,-34.86628 c 0,-5.91138 -0.24653,-6.86244 -1.77885,-6.86244 -2.65411,0 -14.81888,5.34534 -14.7925,6.5 0.0126,0.55 3.74626,2.4006 8.2971,4.11244 l 8.27425,3.11244 z m -58.9787,3.29251 c 10.19379,-4.15008 10.18928,-4.13316 1.94175,-7.30096 -7.51312,-2.88572 -8.8911,-2.70945 -8.95874,1.14601 -0.0145,0.825 -0.30525,3.1875 -0.64616,5.25 -0.34091,2.0625 -0.22346,3.70723 0.26101,3.65495 0.48446,-0.0523 3.81543,-1.28978 7.40214,-2.75 z m 40.39138,-15.74188 c 12.9386,-5.44912 15.58732,-6.89954 15.58732,-8.53551 0,-0.48354 -13.21892,-0.87756 -29.44098,-0.87756 -29.01849,0 -32.574,0.38502 -29.73864,3.22038 1.405,1.405 27.28051,11.77546 29.17962,11.69469 0.825,-0.0351 7.31071,-2.51099 14.41268,-5.502 z m 12.58732,-21.83308 c 0,-2.34454 -10.97501,-11.38347 -15.83056,-13.03792 -7.00572,-2.38709 -15.66755,-1.9866 -22.16944,1.02503 -5.66372,2.6234 -14,9.85281 -14,12.14111 0,1.0226 5.41805,1.29179 26,1.29179 21.79354,0 26,-0.22974 26,-1.42001 z"
       id="path1893" />
  </g>
</svg>
