<?xml version="1.0" encoding="UTF-8" standalone="no"?>
<!-- Created with Inkscape (http://www.inkscape.org/) -->

<svg
   version="1.1"
   id="svg1766"
   width="274.98608"
   height="818.7951"
   viewBox="0 0 274.98608 818.7951"
   xmlns="http://www.w3.org/2000/svg"
   xmlns:svg="http://www.w3.org/2000/svg">
  <defs
     id="defs1770" />
  <g
     id="g1772"
     transform="translate(-11.022706,-0.15619713)">
    <path
       style="fill:#000000"
       d="M 109,816.63139 C 88.901343,810.57113 78.544135,802.36388 66.823408,783.20987 64.565162,779.51944 60.160155,773.35 57.034504,769.5 38.783078,747.01893 30.762789,728.29047 24.916453,694.5 21.931097,677.24534 22.203196,628.13728 25.502618,588.70972 29.769561,537.72044 30.185999,524.72968 30.061355,446.5 c -0.09281,-58.24705 -0.455543,-78.57396 -1.623912,-91 -1.729332,-18.39209 -7.346112,-60.05767 -11.054114,-82 -3.963558,-23.45461 -6.346116,-48.3643 -6.36058,-66.5 -0.01244,-15.59414 2.649077,-48.83087 4.99417,-62.36673 C 21.546504,112.71654 27.650084,91.498091 38.20464,67.5 49.819598,41.090855 52.516441,36.445198 61.476937,27.410484 68.54209,20.286811 71.052129,18.537707 82.5,12.760696 101.26315,3.2921266 108.95328,1.2109951 128,0.44731226 c 14.52277,-0.58229381 16.12529,-0.45931517 25.41781,1.95057414 5.4548,1.4146277 16.0298,5.3879991 23.5,8.8297146 11.77118,5.423287 14.56792,7.192003 20.97496,13.265031 30.53316,28.941388 58.43105,82.222198 75.57015,144.327728 14.54074,52.69008 16.12618,91.42538 6.39241,156.17964 -1.69484,11.275 -3.68761,21.625 -4.42839,23 -0.90666,1.6829 -1.35995,1.96952 -1.3869,0.87695 -0.0652,-2.64516 -12.48331,-27.06595 -19.12474,-37.60985 -7.21894,-11.46076 -21.02608,-30.17438 -22.30338,-30.22907 -1.10156,-0.0472 0.1115,33.80194 1.55509,43.39306 0.93689,6.22463 1.83611,8.11026 8.82226,18.5 9.94733,14.79358 17.00827,28.05259 21.39461,40.17474 5.54855,15.33404 5.99858,19.52469 3.70969,34.54433 -1.07703,7.06741 -2.26611,15.88734 -2.6424,19.59984 -0.37629,3.7125 -0.96924,6.74885 -1.31767,6.74744 -0.34842,-10e-4 -2.8577,-5.73892 -5.57617,-12.75 -4.77527,-12.31569 -16.788,-35.91234 -20.62164,-40.50716 -1.83874,-2.20384 -1.86969,-1.93076 -1.90242,16.78595 -0.044,25.16233 1.07619,33.75533 5.56144,42.66183 5.52035,10.96196 11.90024,27.29496 15.55108,39.81194 3.17155,10.87375 3.34668,12.28962 3.21592,26 -0.0761,7.975 -1.76515,35.875 -3.75354,62 -8.64511,113.58593 -14.5627,140.05628 -40.9106,183 -3.88068,6.325 -8.55877,14.36169 -10.39577,17.85931 -5.56996,10.6051 -10.1736,16.84559 -17.1499,23.24761 -7.87778,7.22929 -15.55375,11.34256 -27.14487,14.54593 -7.50778,2.07488 -10.58181,2.34093 -26.5,2.29357 -15.72577,-0.0468 -18.95718,-0.34008 -25.50703,-2.31503 z m 44.03544,-46.99335 c 5.65678,-2.60972 9.07188,-5.10199 14.10139,-10.29088 11.08548,-11.43679 15.69296,-19.18884 23.85769,-40.14032 12.07885,-30.99553 19.28631,-64.4668 22.07666,-102.52341 1.1815,-16.11425 1.20023,-16.19839 4.37929,-19.68343 4.4478,-4.87588 6.12278,-7.82388 7.95957,-14.00902 3.68498,-12.40867 1.14533,-24.54097 -10.35991,-49.49098 -7.29999,-15.8306 -12.5248,-29.35866 -11.66931,-30.21415 0.20181,-0.20182 4.57539,0.98643 9.71905,2.64054 8.52471,2.7414 9.55331,2.87565 11.62612,1.51749 1.61714,-1.05959 2.27401,-2.45876 2.27401,-4.84379 0,-3.05372 -0.425,-3.53271 -4.75,-5.35333 -2.6125,-1.09975 -7.9,-3.00728 -11.75,-4.23897 -10.97916,-3.51245 -10.11486,-1.21187 -13.06831,-34.78533 l -0.6402,-7.27754 8.29566,3.02754 c 10.21618,3.72844 12.36763,3.78928 14.58031,0.41231 3.03016,-4.62461 0.56435,-7.03565 -12.05389,-11.78621 -7.69496,-2.89703 -11.09645,-4.68488 -11.60286,-6.09856 -0.78826,-2.20051 -2.25916,-35.5 -1.5681,-35.5 0.2365,0 3.9359,1.35 8.22089,3 9.5221,3.66663 11.80065,3.74744 13.93232,0.4941 1.34508,-2.05285 1.43219,-3.01227 0.48179,-5.30673 -0.97919,-2.36398 -2.79669,-3.4003 -11.65261,-6.64417 -5.77085,-2.11383 -10.80979,-4.3383 -11.19764,-4.94327 -0.70461,-1.09903 -3.24845,-36.78889 -2.66922,-37.44877 0.16842,-0.19186 3.92221,1.04564 8.34178,2.75 11.51774,4.44171 15.10008,3.96045 15.10008,-2.02858 0,-3.79476 -3.21661,-6.01021 -14.46922,-9.96572 -8.88903,-3.12467 -9.55392,-3.5491 -9.99022,-6.37716 -0.75454,-4.89079 -2.51463,-33.88896 -2.08314,-34.32045 0.217,-0.217 4.17297,0.99715 8.79105,2.6981 12.05485,4.44011 14.75153,3.96768 14.75153,-2.5843 0,-4.11851 -1.54103,-5.1236 -14.23986,-9.28753 -5.35692,-1.75653 -10.02208,-3.65034 -10.36702,-4.20846 -0.60042,-0.9715 -5.35458,-27.98878 -5.38057,-30.57706 -0.009,-0.92094 2.7344,-1.25 10.42235,-1.25 13.16619,0 15.5651,-0.81303 15.5651,-5.27525 0,-5.35964 -1.01677,-5.72465 -15.95,-5.72577 l -13.55,-10e-4 -2.68223,-4.7758 c -3.9551,-7.0422 -8.97677,-11.71108 -16.56503,-15.40127 -5.80651,-2.82372 -8.02787,-3.33431 -15.85267,-3.6438 -8.34397,-0.33003 -9.71799,-0.10263 -16.53997,2.73737 -8.38315,3.48991 -16.65899,10.91246 -19.32843,17.33553 l -1.55851,3.75 H 93.815321 C 80.399226,244 78,244.90339 78,249.95499 78,254.41542 79.533148,255 91.231385,255 c 9.011325,0 10.934675,0.26916 11.446045,1.60179 0.33807,0.88099 0.0762,6.84349 -0.58198,13.25 -2.00005,19.46842 -0.91391,17.45667 -11.437227,21.18397 C 76.921583,295.90119 76,296.48526 76,300.32568 c 0,6.54392 2.856723,7.04672 14.953607,2.63191 l 8.336414,-3.04242 -0.678558,11.29242 c -0.373208,6.21082 -0.949857,14.74029 -1.281445,18.95437 l -0.602885,7.66196 -8.613567,3.08826 C 76.197238,345.1846 73,347.27323 73,350.7853 c 0,5.84337 4.02504,6.62386 14,2.7147 3.508575,-1.375 6.968901,-2.5 7.689614,-2.5 1.009588,0 1.308754,2.81197 1.303277,12.25 -0.0039,6.7375 -0.286819,15.21079 -0.628686,18.82953 l -0.621577,6.57953 -9.782042,3.20633 c -5.380124,1.76348 -10.947215,4.12285 -12.371314,5.24305 -3.069999,2.41486 -3.344468,5.89814 -0.656434,8.33078 2.246827,2.03335 5.007952,1.65283 14.936221,-2.05842 3.502983,-1.30944 6.778015,-2.3808 7.27785,-2.3808 0.503188,0 0.67836,2.78944 0.392489,6.25 -0.283965,3.4375 -0.787465,11.91217 -1.118888,18.83261 l -0.602587,12.58261 -10.588276,3.41739 C 70.675707,445.81167 67,448.02275 67,451.24384 67,453.83021 69.735434,457 71.9674,457 c 0.911583,0 5.566839,-1.32147 10.345012,-2.93659 L 91,451.12682 l -0.01951,5.18659 c -0.02349,6.24599 -2.573537,29.49901 -3.496417,31.88267 -0.418922,1.08201 -4.698483,3.03551 -11.820372,5.39566 -10.010054,3.31727 -16.755262,6.38233 -14.13621,6.42357 0.534878,0.008 0.38391,0.38861 -0.335484,0.84486 -1.737872,1.10218 -0.630283,5.38503 1.782262,6.89169 1.499932,0.93672 3.631197,0.56789 11.000939,-1.90379 5.027326,-1.68608 9.427641,-2.77855 9.778477,-2.42772 0.844545,0.84455 -8.006106,19.05921 -14.013057,28.83891 -6.22245,10.13054 -12.263912,23.29064 -13.641952,29.71622 -2.376702,11.08218 -0.69518,21.73332 4.873083,30.86718 L 63.811009,597.5 64.456368,621 C 66.873416,709.01391 86.178089,760.53473 121,771.90513 c 9.87834,3.22557 21.98709,2.36866 32.03544,-2.26709 z M 181.42977,586.43238 C 162.15606,576.35519 154.95151,574.42038 140,575.30625 c -10.07364,0.59686 -24.07242,4.64529 -34.68668,10.03136 C 96.815555,589.64968 87.018886,593 82.907692,593 c -2.119804,0 -5.864101,-0.97649 -8.320659,-2.16998 -3.777163,-1.83509 -4.882023,-3.09595 -7.159117,-8.16999 -2.410375,-5.37103 -2.627787,-6.76733 -2.073928,-13.31947 0.525531,-6.21703 1.465712,-9.01547 6.242255,-18.58001 3.092944,-6.1933 7.868913,-14.99726 10.613264,-19.56435 5.983308,-9.95729 11.337008,-22.12928 12.270033,-27.89672 l 0.679538,-4.20053 24.776582,-8.23666 24.77658,-8.23666 23.38095,8.02259 23.38094,8.0226 0.87334,3.41459 c 3.6516,14.27707 12.19653,35.31445 13.91306,34.25357 0.60082,-0.37133 0.7525,-0.16908 0.35525,0.47368 -0.38128,0.61693 1.28889,5.74895 3.71148,11.40451 5.87742,13.72087 7.04888,18.50817 6.42645,26.26232 -0.87272,10.8722 -8.63705,20.64601 -16.23584,20.43783 -1.7151,-0.047 -9.95514,-3.70981 -19.0881,-8.48494 z M 98.649052,485.1717 c -0.353579,-0.6381 1.323472,-17.39631 1.793448,-17.92135 0.27882,-0.31149 22.34899,7.53358 24.36005,8.65903 1.00309,0.56135 -2.86896,2.27489 -12.15464,5.3789 -7.49466,2.50531 -13.794151,4.25285 -13.998858,3.88342 z m 77.000328,-3.88301 c -9.88219,-3.53478 -12.46381,-4.81304 -11.17606,-5.5337 C 166.27871,474.74464 185.94267,468 187.08294,468 c 0.37948,0 0.9492,1.9125 1.26603,4.25 0.31683,2.3375 0.86902,6.3875 1.22708,9 0.35807,2.6125 0.26244,4.72418 -0.21251,4.69262 -0.47495,-0.0315 -6.64632,-2.12582 -13.71416,-4.65393 z M 140,469.40564 c -1.925,-0.8368 -10.25,-3.92558 -18.5,-6.86397 -21.586081,-7.68827 -20.78125,-7.22572 -19.9856,-11.48626 0.36518,-1.95548 0.76585,-3.65992 0.89037,-3.78766 0.12452,-0.12774 9.70173,-3.58398 21.28268,-7.68053 l 21.05629,-7.44828 20.87813,7.75871 20.87813,7.75871 0.30005,4.01944 0.30005,4.01943 -20.30005,7.08372 C 155.63502,466.675 145.825,470.10217 145,470.39488 c -0.825,0.29271 -3.075,-0.15245 -5,-0.98924 z m -37.70317,-42.82119 c 0.66195,-9.37991 1.22917,-11.19954 3.0422,-9.75933 0.63853,0.50723 5.77347,2.60406 11.41097,4.65963 5.6375,2.05557 10.25,4.02538 10.25,4.37737 0,0.54004 -19.58616,7.90705 -23.90434,8.99121 -1.16265,0.29191 -1.30153,-1.1456 -0.79883,-8.26888 z m 71.76452,4.32182 c -5.74126,-2.13596 -10.81699,-4.26191 -11.2794,-4.72432 -0.96521,-0.96521 21.00727,-9.43026 22.33995,-8.60661 1.06546,0.65849 1.18979,17.46833 0.1281,17.31958 -0.4125,-0.0578 -5.44739,-1.85268 -11.18865,-3.98865 z M 124,412.22424 c -10.725,-4.18023 -19.59875,-7.65203 -19.71945,-7.71511 -0.12069,-0.0631 -0.34569,-1.64376 -0.5,-3.51262 L 103.5,397.59859 118,391.83291 c 7.975,-3.17112 17.425,-6.72106 21,-7.88875 l 6.5,-2.12307 17,6.62079 c 9.35,3.64143 17.98822,7.03598 19.19605,7.54344 1.44036,0.60515 2.42799,2.15893 2.87004,4.51529 0.37069,1.97596 0.50747,3.7331 0.30395,3.90477 -0.75623,0.63787 -39.95307,15.59128 -40.6478,15.50695 C 143.82501,419.86411 134.725,416.40447 124,412.22424 Z M 104,380.13957 C 104,373.51869 105.21935,367 106.45781,367 c 2.3363,0 19.91242,7.61068 20.30652,8.79298 0.22128,0.66386 -0.27156,1.20702 -1.09522,1.20702 -0.82365,0 -5.62475,1.575 -10.66911,3.5 -5.04436,1.925 -9.58296,3.5 -10.08578,3.5 C 104.4114,384 104,382.26281 104,380.13957 Z m 68.5,0.0261 c -5.5,-2.04271 -9.93245,-4.15229 -9.84988,-4.68796 0.18142,-1.17695 19.1956,-8.9653 19.97783,-8.18306 0.97201,0.972 1.69516,16.7079 0.76494,16.64521 C 182.9018,383.90674 178,382.20835 172.5,380.16564 Z m -47.89131,-18.51258 c -14.61429,-5.84289 -18.05251,-7.59172 -18.77139,-9.54799 -1.71875,-4.6772 -0.47544,-5.52802 18.92928,-12.95358 10.30338,-3.94277 19.28229,-7.16481 19.95313,-7.16008 0.67083,0.005 9.33333,3.23952 19.25,7.18844 L 182,346.3597 l -0.003,4.07015 -0.003,4.07015 -18.38219,7.25 c -10.1102,3.9875 -18.99635,7.20638 -19.747,7.15306 -0.75066,-0.0533 -9.41592,-3.31582 -19.25614,-7.25 z M 106,331.6381 C 106,325.24712 107.38956,317 108.46638,317 c 1.40626,0 17.66966,6.89133 18.86268,7.99273 0.45598,0.42096 -1.11902,1.45065 -3.5,2.2882 -2.38098,0.83754 -7.36656,2.6881 -11.07906,4.11235 l -6.75,2.58953 z m 64.75,-1.93549 c -5.3625,-2.25997 -9.75,-4.38828 -9.75,-4.72958 0,-1.15392 18.41171,-7.96132 19.25416,-7.11887 0.45955,0.45955 0.70287,4.23799 0.5407,8.39652 L 180.5,333.81164 Z m -45,-17.97389 L 108,304.5415 v -4.16234 c 0,-3.7071 0.30077,-4.23768 2.75,-4.85111 1.5125,-0.37883 9.725,-3.37553 18.25,-6.65933 l 15.5,-5.97056 16,6.19482 c 8.8,3.40715 16.5625,6.63517 17.25,7.17337 0.6875,0.5382 1.25,2.65121 1.25,4.69558 0,3.08025 -0.47112,3.93473 -2.75,4.9877 -5.06859,2.34198 -31.53058,13.05088 -32.14397,13.00834 -0.33332,-0.0231 -8.59353,-3.27628 -18.35603,-7.22925 z M 110,276.86244 C 110,270.95106 110.24653,270 111.77885,270 c 2.65411,0 14.81888,5.34534 14.7925,6.5 -0.0126,0.55 -3.74626,2.4006 -8.2971,4.11244 L 110,283.72488 Z m 58.9787,3.29251 c -10.19379,-4.15008 -10.18928,-4.13316 -1.94175,-7.30096 7.51312,-2.88572 8.8911,-2.70945 8.95874,1.14601 0.0145,0.825 0.30525,3.1875 0.64616,5.25 0.34091,2.0625 0.22346,3.70723 -0.26101,3.65495 -0.48446,-0.0523 -3.81543,-1.28978 -7.40214,-2.75 z M 128.58732,264.41307 C 115.64872,258.96395 113,257.51353 113,255.87756 113,255.39402 126.21892,255 142.44098,255 c 29.01849,0 32.574,0.38502 29.73864,3.22038 -1.405,1.405 -27.28051,11.77546 -29.17962,11.69469 -0.825,-0.0351 -7.31071,-2.51099 -14.41268,-5.502 z M 116,242.57999 c 0,-2.34454 10.97501,-11.38347 15.83056,-13.03792 7.00572,-2.38709 15.66755,-1.9866 22.16944,1.02503 5.66372,2.6234 14,9.85281 14,12.14111 0,1.0226 -5.41805,1.29179 -26,1.29179 -21.79354,0 -26,-0.22974 -26,-1.42001 z"
       id="path1893" />
  </g>
</svg>
