<?xml version="1.0" encoding="UTF-8" standalone="no"?>
<!-- Created with Inkscape (http://www.inkscape.org/) -->

<svg
   width="81.165878mm"
   height="63.290752mm"
   viewBox="0 90 145.56369 113.50626"
   version="1.1"
   id="svg5"
   xml:space="preserve"
   xmlns="http://www.w3.org/2000/svg"
   xmlns:svg="http://www.w3.org/2000/svg"><defs
     id="defs2" /><path
     id="path302"
     style="fill:#000000;stroke:none;stroke-width:1"
     d="m 56.023971,90.00003 -1.598353,0.0186 -1.598352,0.0186 0.529167,0.22737 0.529167,0.22738 -0.268201,0.0186 -0.268201,0.0186 -1.107426,1.418 -1.107425,1.418 -2.328541,0.99942 -2.32854,0.99994 -2.513541,1.17409 -2.513542,1.1746 -6.482292,2.92902 -6.482291,2.92902 -2.400371,1.1405 -2.40037,1.1405 -0.671793,0.25528 -0.671794,0.25529 -0.857829,1.54202 -0.857829,1.54202 -0.867647,1.32292 -0.867647,1.32292 -1.525488,2.64583 -1.526006,2.64584 -1.18494,1.85208 -1.185457,1.85208 -2.813265,4.7625 -2.813265,4.7625 -1.000456,1.5875 -1.000456,1.5875 -1.477429,2.38125 -1.476912,2.38125 -0.429948,0.69402 -0.429432,0.69349 -0.903304,1.26866 -0.902787,1.26866 -0.110587,1.21233 L 0,144.90105 l 1.758549,1.79059 1.758549,1.79007 1.503784,1.11415 1.504301,1.11362 1.322917,0.90021 1.322916,0.90072 2.778125,1.39629 2.778125,1.3963 1.5875,0.65732 1.5875,0.65733 2.910417,0.95498 2.910417,0.95498 1.852083,0.42943 1.852083,0.42892 1.190625,0.11627 5.803266,0.36175 c 3.744097,-4.98655 0.01862,-12.97619 0,0 l -0.0088,4.88082 -0.240812,7.67292 -0.240813,7.67291 -0.264583,8.20209 -0.264583,8.20208 -0.164848,3.50573 -0.163814,3.50573 h 39.444104 39.445132 l -0.0103,-3.9026 -0.0103,-3.90261 -0.23926,-5.82083 -0.23874,-5.82084 -0.44442,-14.07924 0.18619,-10.17454 c 0.54386,-17.312 -6.36265,-7.02429 0,0 l 5.46923,-0.32301 1.14205,-0.15658 1.90118,-0.43408 1.90117,-0.4346 1.58854,-0.4656 1.58853,-0.46561 2.6448,-0.9896 2.6448,-0.98961 2.64273,-1.30534 2.64273,-1.30535 0.92915,-0.56637 0.92914,-0.56586 1.85208,-1.31 1.85209,-1.31051 2.3151,-2.26808 2.3151,-2.26808 -0.004,-1.32808 -0.004,-1.3286 -0.22272,0.35088 -0.22221,0.35088 -0.5948,-1.01234 -0.59428,-1.01234 -0.36948,-0.21188 -0.36949,-0.21135 v -0.26355 -0.26303 l -1.26969,-1.90635 -1.26917,-1.90634 -1.94304,-3.30729 -1.94303,-3.3073 -1.09761,-1.71979 -1.09709,-1.71979 -0.31006,-0.52917 -0.31006,-0.52916 -1.2671,-2.07894 -1.26711,-2.07946 -1.05833,-1.77509 -1.05833,-1.7756 -0.87799,-1.43712 -0.87746,-1.43712 -1.30225,-2.11667 -1.30173,-2.11667 -0.58498,-1.25677 -0.58497,-1.25677 h -0.34417 -0.34416 v -0.5426 -0.54261 l -0.99219,-0.41186 -0.99219,-0.41134 -7.27604,-3.31608 -7.27604,-3.31556 -2.38125,-1.10226 -2.38125,-1.10174 -3.774956,-1.70119 -3.77497,-1.70067 -1.38441,-1.64331 -1.38441,-1.64279 -1.12758,-0.0155 -1.12706,-0.015 -2.44482,0.38654 -2.44429,0.38654 -3.70417,0.27388 -3.704167,0.27389 h -3.175 -3.175 l -4.233334,-0.26613 -4.233333,-0.26665 -3.031856,-0.3943 z" /></svg>
